<svg xmlns="http://www.w3.org/2000/svg" version="1.1" xmlns:xlink="http://www.w3.org/1999/xlink" xmlns:svgjs="http://svgjs.dev/svgjs" width="1280" height="400" preserveAspectRatio="none" viewBox="0 0 1280 400">
    <g mask="url(&quot;#SvgjsMask1018&quot;)" fill="none">
        <rect width="1280" height="400" x="0" y="0" fill="rgba(25, 25, 25, 1)"></rect>
        <path d="M-72.46 352.31L-72.46 352.31" stroke="#132e65" stroke-width="1.5"></path>
        <path d="M-72.46 352.31L39.33 371.22" stroke="#132e65" stroke-width="1.5"></path>
        <path d="M-72.46 352.31L-109.97 489.72" stroke="#132e65" stroke-width="1.5"></path>
        <path d="M-72.46 352.31L42.62 538.3" stroke="#132e65" stroke-width="1.5"></path>
        <path d="M-72.46 352.31L256.74 401.46" stroke="#132e65" stroke-width="1.5"></path>
        <path d="M-72.46 352.31L194.98 554.78" stroke="#132e65" stroke-width="1.5"></path>
        <path d="M-72.46 352.31L258.65 239.17" stroke="#132e65" stroke-width="1.5"></path>
        <path d="M-109.97 489.72L-109.97 489.72" stroke="#132e65" stroke-width="1.5"></path>
        <path d="M-109.97 489.72L42.62 538.3" stroke="#132e65" stroke-width="1.5"></path>
        <path d="M-109.97 489.72L39.33 371.22" stroke="#132e65" stroke-width="1.5"></path>
        <path d="M-109.97 489.72L194.98 554.78" stroke="#132e65" stroke-width="1.5"></path>
        <path d="M-109.97 489.72L256.74 401.46" stroke="#132e65" stroke-width="1.5"></path>
        <path d="M-109.97 489.72L258.65 239.17" stroke="#132e65" stroke-width="1.5"></path>
        <path d="M39.33 371.22L39.33 371.22" stroke="#132e65" stroke-width="1.5"></path>
        <path d="M39.33 371.22L42.62 538.3" stroke="#132e65" stroke-width="1.5"></path>
        <path d="M42.62 538.3L42.62 538.3" stroke="#132e65" stroke-width="1.5"></path>
        <path d="M42.62 538.3L194.98 554.78" stroke="#132e65" stroke-width="1.5"></path>
        <path d="M42.62 538.3L256.74 401.46" stroke="#132e65" stroke-width="1.5"></path>
        <path d="M42.62 538.3L398.86 492.66" stroke="#132e65" stroke-width="1.5"></path>
        <path d="M258.65 239.17L258.65 239.17" stroke="#132e65" stroke-width="1.5"></path>
        <path d="M258.65 239.17L362.03 341.71" stroke="#132e65" stroke-width="1.5"></path>
        <path d="M258.65 239.17L256.74 401.46" stroke="#132e65" stroke-width="1.5"></path>
        <path d="M258.65 239.17L39.33 371.22" stroke="#132e65" stroke-width="1.5"></path>
        <path d="M258.65 239.17L521.93 192.24" stroke="#132e65" stroke-width="1.5"></path>
        <path d="M258.65 239.17L398.86 492.66" stroke="#132e65" stroke-width="1.5"></path>
        <path d="M256.74 401.46L256.74 401.46" stroke="#132e65" stroke-width="1.5"></path>
        <path d="M256.74 401.46L362.03 341.71" stroke="#132e65" stroke-width="1.5"></path>
        <path d="M256.74 401.46L194.98 554.78" stroke="#132e65" stroke-width="1.5"></path>
        <path d="M194.98 554.78L194.98 554.78" stroke="#132e65" stroke-width="1.5"></path>
        <path d="M194.98 554.78L398.86 492.66" stroke="#132e65" stroke-width="1.5"></path>
        <path d="M194.98 554.78L39.33 371.22" stroke="#132e65" stroke-width="1.5"></path>
        <path d="M194.98 554.78L362.03 341.71" stroke="#132e65" stroke-width="1.5"></path>
        <path d="M362.03 341.71L362.03 341.71" stroke="#132e65" stroke-width="1.5"></path>
        <path d="M362.03 341.71L398.86 492.66" stroke="#132e65" stroke-width="1.5"></path>
        <path d="M362.03 341.71L520.71 404.9" stroke="#132e65" stroke-width="1.5"></path>
        <path d="M362.03 341.71L521.93 192.24" stroke="#132e65" stroke-width="1.5"></path>
        <path d="M398.86 492.66L398.86 492.66" stroke="#132e65" stroke-width="1.5"></path>
        <path d="M398.86 492.66L522.81 506.34" stroke="#132e65" stroke-width="1.5"></path>
        <path d="M398.86 492.66L520.71 404.9" stroke="#132e65" stroke-width="1.5"></path>
        <path d="M521.93 192.24L521.93 192.24" stroke="#132e65" stroke-width="1.5"></path>
        <path d="M521.93 192.24L706.79 237.29" stroke="#132e65" stroke-width="1.5"></path>
        <path d="M521.93 192.24L520.71 404.9" stroke="#132e65" stroke-width="1.5"></path>
        <path d="M521.93 192.24L706 352.13" stroke="#132e65" stroke-width="1.5"></path>
        <path d="M520.71 404.9L520.71 404.9" stroke="#132e65" stroke-width="1.5"></path>
        <path d="M520.71 404.9L522.81 506.34" stroke="#132e65" stroke-width="1.5"></path>
        <path d="M520.71 404.9L706 352.13" stroke="#132e65" stroke-width="1.5"></path>
        <path d="M522.81 506.34L522.81 506.34" stroke="#132e65" stroke-width="1.5"></path>
        <path d="M522.81 506.34L657.52 555.95" stroke="#132e65" stroke-width="1.5"></path>
        <path d="M706.79 237.29L706.79 237.29" stroke="#132e65" stroke-width="1.5"></path>
        <path d="M706.79 237.29L706 352.13" stroke="#132e65" stroke-width="1.5"></path>
        <path d="M706.79 237.29L850.55 245.44" stroke="#132e65" stroke-width="1.5"></path>
        <path d="M706 352.13L706 352.13" stroke="#132e65" stroke-width="1.5"></path>
        <path d="M706 352.13L850.55 245.44" stroke="#132e65" stroke-width="1.5"></path>
        <path d="M706 352.13L814.12 528.85" stroke="#132e65" stroke-width="1.5"></path>
        <path d="M657.52 555.95L657.52 555.95" stroke="#132e65" stroke-width="1.5"></path>
        <path d="M657.52 555.95L814.12 528.85" stroke="#132e65" stroke-width="1.5"></path>
        <path d="M657.52 555.95L520.71 404.9" stroke="#132e65" stroke-width="1.5"></path>
        <path d="M839.18 -65.52L839.18 -65.52" stroke="#132e65" stroke-width="1.5"></path>
        <path d="M839.18 -65.52L977.28 -55.49" stroke="#132e65" stroke-width="1.5"></path>
        <path d="M839.18 -65.52L944.83 48.48" stroke="#132e65" stroke-width="1.5"></path>
        <path d="M806.03 109.52L806.03 109.52" stroke="#132e65" stroke-width="1.5"></path>
        <path d="M806.03 109.52L850.55 245.44" stroke="#132e65" stroke-width="1.5"></path>
        <path d="M806.03 109.52L944.83 48.48" stroke="#132e65" stroke-width="1.5"></path>
        <path d="M806.03 109.52L706.79 237.29" stroke="#132e65" stroke-width="1.5"></path>
        <path d="M806.03 109.52L839.18 -65.52" stroke="#132e65" stroke-width="1.5"></path>
        <path d="M806.03 109.52L1006.18 218.67" stroke="#132e65" stroke-width="1.5"></path>
        <path d="M850.55 245.44L850.55 245.44" stroke="#132e65" stroke-width="1.5"></path>
        <path d="M814.12 528.85L814.12 528.85" stroke="#132e65" stroke-width="1.5"></path>
        <path d="M814.12 528.85L957.11 404.15" stroke="#132e65" stroke-width="1.5"></path>
        <path d="M814.12 528.85L850.55 245.44" stroke="#132e65" stroke-width="1.5"></path>
        <path d="M977.28 -55.49L977.28 -55.49" stroke="#132e65" stroke-width="1.5"></path>
        <path d="M977.28 -55.49L944.83 48.48" stroke="#132e65" stroke-width="1.5"></path>
        <path d="M944.83 48.48L944.83 48.48" stroke="#132e65" stroke-width="1.5"></path>
        <path d="M944.83 48.48L1109.29 100.03" stroke="#132e65" stroke-width="1.5"></path>
        <path d="M944.83 48.48L1006.18 218.67" stroke="#132e65" stroke-width="1.5"></path>
        <path d="M1006.18 218.67L1006.18 218.67" stroke="#132e65" stroke-width="1.5"></path>
        <path d="M1006.18 218.67L1097.46 244.31" stroke="#132e65" stroke-width="1.5"></path>
        <path d="M1006.18 218.67L1109.29 100.03" stroke="#132e65" stroke-width="1.5"></path>
        <path d="M1006.18 218.67L850.55 245.44" stroke="#132e65" stroke-width="1.5"></path>
        <path d="M957.11 404.15L957.11 404.15" stroke="#132e65" stroke-width="1.5"></path>
        <path d="M957.11 404.15L1109.57 400.22" stroke="#132e65" stroke-width="1.5"></path>
        <path d="M1112.04 -59.91L1112.04 -59.91" stroke="#132e65" stroke-width="1.5"></path>
        <path d="M1112.04 -59.91L977.28 -55.49" stroke="#132e65" stroke-width="1.5"></path>
        <path d="M1112.04 -59.91L1262.22 -65.72" stroke="#132e65" stroke-width="1.5"></path>
        <path d="M1112.04 -59.91L1109.29 100.03" stroke="#132e65" stroke-width="1.5"></path>
        <path d="M1112.04 -59.91L944.83 48.48" stroke="#132e65" stroke-width="1.5"></path>
        <path d="M1112.04 -59.91L1294.65 42.61" stroke="#132e65" stroke-width="1.5"></path>
        <path d="M1109.29 100.03L1109.29 100.03" stroke="#132e65" stroke-width="1.5"></path>
        <path d="M1109.29 100.03L1097.46 244.31" stroke="#132e65" stroke-width="1.5"></path>
        <path d="M1097.46 244.31L1097.46 244.31" stroke="#132e65" stroke-width="1.5"></path>
        <path d="M1097.46 244.31L1109.57 400.22" stroke="#132e65" stroke-width="1.5"></path>
        <path d="M1097.46 244.31L1295.9 207.07" stroke="#132e65" stroke-width="1.5"></path>
        <path d="M1097.46 244.31L957.11 404.15" stroke="#132e65" stroke-width="1.5"></path>
        <path d="M1109.57 400.22L1109.57 400.22" stroke="#132e65" stroke-width="1.5"></path>
        <path d="M1109.57 400.22L1128.03 516.96" stroke="#132e65" stroke-width="1.5"></path>
        <path d="M1109.57 400.22L1267.85 376.78" stroke="#132e65" stroke-width="1.5"></path>
        <path d="M1109.57 400.22L1289.8 499.52" stroke="#132e65" stroke-width="1.5"></path>
        <path d="M1128.03 516.96L1128.03 516.96" stroke="#132e65" stroke-width="1.5"></path>
        <path d="M1128.03 516.96L1289.8 499.52" stroke="#132e65" stroke-width="1.5"></path>
        <path d="M1128.03 516.96L1267.85 376.78" stroke="#132e65" stroke-width="1.5"></path>
        <path d="M1128.03 516.96L957.11 404.15" stroke="#132e65" stroke-width="1.5"></path>
        <path d="M1128.03 516.96L1401.18 511.57" stroke="#132e65" stroke-width="1.5"></path>
        <path d="M1128.03 516.96L1097.46 244.31" stroke="#132e65" stroke-width="1.5"></path>
        <path d="M1262.22 -65.72L1262.22 -65.72" stroke="#132e65" stroke-width="1.5"></path>
        <path d="M1262.22 -65.72L1294.65 42.61" stroke="#132e65" stroke-width="1.5"></path>
        <path d="M1262.22 -65.72L1392.66 -66.97" stroke="#132e65" stroke-width="1.5"></path>
        <path d="M1294.65 42.61L1294.65 42.61" stroke="#132e65" stroke-width="1.5"></path>
        <path d="M1294.65 42.61L1420.42 88.75" stroke="#132e65" stroke-width="1.5"></path>
        <path d="M1294.65 42.61L1392.66 -66.97" stroke="#132e65" stroke-width="1.5"></path>
        <path d="M1295.9 207.07L1295.9 207.07" stroke="#132e65" stroke-width="1.5"></path>
        <path d="M1295.9 207.07L1450.92 224.14" stroke="#132e65" stroke-width="1.5"></path>
        <path d="M1295.9 207.07L1294.65 42.61" stroke="#132e65" stroke-width="1.5"></path>
        <path d="M1267.85 376.78L1267.85 376.78" stroke="#132e65" stroke-width="1.5"></path>
        <path d="M1267.85 376.78L1289.8 499.52" stroke="#132e65" stroke-width="1.5"></path>
        <path d="M1267.85 376.78L1295.9 207.07" stroke="#132e65" stroke-width="1.5"></path>
        <path d="M1289.8 499.52L1289.8 499.52" stroke="#132e65" stroke-width="1.5"></path>
        <path d="M1289.8 499.52L1401.18 511.57" stroke="#132e65" stroke-width="1.5"></path>
        <path d="M1289.8 499.52L1295.9 207.07" stroke="#132e65" stroke-width="1.5"></path>
        <path d="M1289.8 499.52L1450.92 224.14" stroke="#132e65" stroke-width="1.5"></path>
        <path d="M1392.66 -66.97L1392.66 -66.97" stroke="#132e65" stroke-width="1.5"></path>
        <path d="M1420.42 88.75L1420.42 88.75" stroke="#132e65" stroke-width="1.5"></path>
        <path d="M1420.42 88.75L1450.92 224.14" stroke="#132e65" stroke-width="1.5"></path>
        <path d="M1420.42 88.75L1392.66 -66.97" stroke="#132e65" stroke-width="1.5"></path>
        <path d="M1420.42 88.75L1295.9 207.07" stroke="#132e65" stroke-width="1.5"></path>
        <path d="M1450.92 224.14L1450.92 224.14" stroke="#132e65" stroke-width="1.5"></path>
        <path d="M1401.18 511.57L1401.18 511.57" stroke="#132e65" stroke-width="1.5"></path>
        <path d="M1401.18 511.57L1267.85 376.78" stroke="#132e65" stroke-width="1.5"></path>
        <path d="M1401.18 511.57L1450.92 224.14" stroke="#132e65" stroke-width="1.5"></path>
        <path d="M1401.18 511.57L1109.57 400.22" stroke="#132e65" stroke-width="1.5"></path>
        <path d="M1401.18 511.57L1295.9 207.07" stroke="#132e65" stroke-width="1.5"></path>
        <circle r="5" cx="-72.46" cy="352.31" fill="#132e65"></circle>
        <circle r="5" cx="-109.97" cy="489.72" fill="#132e65"></circle>
        <circle r="5" cx="39.33" cy="371.22" fill="#132e65"></circle>
        <circle r="5" cx="42.62" cy="538.3" fill="#132e65"></circle>
        <circle r="5" cx="258.65" cy="239.17" fill="#132e65"></circle>
        <circle r="5" cx="256.74" cy="401.46" fill="#132e65"></circle>
        <circle r="5" cx="194.98" cy="554.78" fill="#132e65"></circle>
        <circle r="5" cx="362.03" cy="341.71" fill="#132e65"></circle>
        <circle r="5" cx="398.86" cy="492.66" fill="#132e65"></circle>
        <circle r="5" cx="521.93" cy="192.24" fill="#132e65"></circle>
        <circle r="5" cx="520.71" cy="404.9" fill="#132e65"></circle>
        <circle r="5" cx="522.81" cy="506.34" fill="#132e65"></circle>
        <circle r="5" cx="706.79" cy="237.29" fill="#132e65"></circle>
        <circle r="5" cx="706" cy="352.13" fill="#132e65"></circle>
        <circle r="5" cx="657.52" cy="555.95" fill="#132e65"></circle>
        <circle r="5" cx="839.18" cy="-65.52" fill="#132e65"></circle>
        <circle r="5" cx="806.03" cy="109.52" fill="#132e65"></circle>
        <circle r="5" cx="850.55" cy="245.44" fill="#132e65"></circle>
        <circle r="5" cx="814.12" cy="528.85" fill="#132e65"></circle>
        <circle r="5" cx="977.28" cy="-55.49" fill="#132e65"></circle>
        <circle r="5" cx="944.83" cy="48.48" fill="#132e65"></circle>
        <circle r="5" cx="1006.18" cy="218.67" fill="#132e65"></circle>
        <circle r="5" cx="957.11" cy="404.15" fill="#132e65"></circle>
        <circle r="5" cx="1112.04" cy="-59.91" fill="#132e65"></circle>
        <circle r="5" cx="1109.29" cy="100.03" fill="#132e65"></circle>
        <circle r="5" cx="1097.46" cy="244.31" fill="#132e65"></circle>
        <circle r="5" cx="1109.57" cy="400.22" fill="#132e65"></circle>
        <circle r="5" cx="1128.03" cy="516.96" fill="#132e65"></circle>
        <circle r="5" cx="1262.22" cy="-65.72" fill="#132e65"></circle>
        <circle r="5" cx="1294.65" cy="42.61" fill="#132e65"></circle>
        <circle r="5" cx="1295.9" cy="207.07" fill="#132e65"></circle>
        <circle r="5" cx="1267.85" cy="376.78" fill="#132e65"></circle>
        <circle r="5" cx="1289.8" cy="499.52" fill="#132e65"></circle>
        <circle r="5" cx="1392.66" cy="-66.97" fill="#132e65"></circle>
        <circle r="5" cx="1420.42" cy="88.75" fill="#132e65"></circle>
        <circle r="5" cx="1450.92" cy="224.14" fill="#132e65"></circle>
        <circle r="5" cx="1401.18" cy="511.57" fill="#132e65"></circle>
        <path d="M510.25 501.58L510.25 501.58" stroke="hsl(214.10000000000002, 81.7%, 65.8%)" stroke-width="1.5"></path>
        <path d="M510.25 501.58L406.12 547.72" stroke="hsl(214.10000000000002, 81.7%, 65.8%)" stroke-width="1.5"></path>
        <path d="M510.25 501.58L560.89 368.66" stroke="hsl(214.10000000000002, 81.7%, 65.8%)" stroke-width="1.5"></path>
        <path d="M955.06 341.33L955.06 341.33" stroke="hsl(214.10000000000002, 81.7%, 65.8%)" stroke-width="1.5"></path>
        <path d="M955.06 341.33L839.52 343.55" stroke="hsl(214.10000000000002, 81.7%, 65.8%)" stroke-width="1.5"></path>
        <path d="M955.06 341.33L952.51 199.42" stroke="hsl(214.10000000000002, 81.7%, 65.8%)" stroke-width="1.5"></path>
        <path d="M-51.51 406.62L-51.51 406.62" stroke="hsl(214.10000000000002, 81.7%, 65.8%)" stroke-width="1.5"></path>
        <path d="M-51.51 406.62L-80.99 548.22" stroke="hsl(214.10000000000002, 81.7%, 65.8%)" stroke-width="1.5"></path>
        <path d="M-51.51 406.62L99.25 368.86" stroke="hsl(214.10000000000002, 81.7%, 65.8%)" stroke-width="1.5"></path>
        <path d="M-51.51 406.62L105.53 499.75" stroke="hsl(214.10000000000002, 81.7%, 65.8%)" stroke-width="1.5"></path>
        <path d="M-51.51 406.62L241.83 395.49" stroke="hsl(214.10000000000002, 81.7%, 65.8%)" stroke-width="1.5"></path>
        <path d="M-51.51 406.62L248.11 514.98" stroke="hsl(214.10000000000002, 81.7%, 65.8%)" stroke-width="1.5"></path>
        <path d="M-80.99 548.22L-80.99 548.22" stroke="hsl(214.10000000000002, 81.7%, 65.8%)" stroke-width="1.5"></path>
        <path d="M-80.99 548.22L105.53 499.75" stroke="hsl(214.10000000000002, 81.7%, 65.8%)" stroke-width="1.5"></path>
        <path d="M99.25 368.86L99.25 368.86" stroke="hsl(214.10000000000002, 81.7%, 65.8%)" stroke-width="1.5"></path>
        <path d="M99.25 368.86L105.53 499.75" stroke="hsl(214.10000000000002, 81.7%, 65.8%)" stroke-width="1.5"></path>
        <path d="M99.25 368.86L241.83 395.49" stroke="hsl(214.10000000000002, 81.7%, 65.8%)" stroke-width="1.5"></path>
        <path d="M99.25 368.86L248.11 514.98" stroke="hsl(214.10000000000002, 81.7%, 65.8%)" stroke-width="1.5"></path>
        <path d="M99.25 368.86L-80.99 548.22" stroke="hsl(214.10000000000002, 81.7%, 65.8%)" stroke-width="1.5"></path>
        <path d="M105.53 499.75L105.53 499.75" stroke="hsl(214.10000000000002, 81.7%, 65.8%)" stroke-width="1.5"></path>
        <path d="M105.53 499.75L248.11 514.98" stroke="hsl(214.10000000000002, 81.7%, 65.8%)" stroke-width="1.5"></path>
        <path d="M105.53 499.75L241.83 395.49" stroke="hsl(214.10000000000002, 81.7%, 65.8%)" stroke-width="1.5"></path>
        <path d="M241.83 395.49L241.83 395.49" stroke="hsl(214.10000000000002, 81.7%, 65.8%)" stroke-width="1.5"></path>
        <path d="M241.83 395.49L248.11 514.98" stroke="hsl(214.10000000000002, 81.7%, 65.8%)" stroke-width="1.5"></path>
        <path d="M248.11 514.98L248.11 514.98" stroke="hsl(214.10000000000002, 81.7%, 65.8%)" stroke-width="1.5"></path>
        <path d="M248.11 514.98L406.12 547.72" stroke="hsl(214.10000000000002, 81.7%, 65.8%)" stroke-width="1.5"></path>
        <path d="M248.11 514.98L408.93 352.03" stroke="hsl(214.10000000000002, 81.7%, 65.8%)" stroke-width="1.5"></path>
        <path d="M248.11 514.98L510.25 501.58" stroke="hsl(214.10000000000002, 81.7%, 65.8%)" stroke-width="1.5"></path>
        <path d="M408.93 352.03L408.93 352.03" stroke="hsl(214.10000000000002, 81.7%, 65.8%)" stroke-width="1.5"></path>
        <path d="M408.93 352.03L560.89 368.66" stroke="hsl(214.10000000000002, 81.7%, 65.8%)" stroke-width="1.5"></path>
        <path d="M408.93 352.03L241.83 395.49" stroke="hsl(214.10000000000002, 81.7%, 65.8%)" stroke-width="1.5"></path>
        <path d="M408.93 352.03L510.25 501.58" stroke="hsl(214.10000000000002, 81.7%, 65.8%)" stroke-width="1.5"></path>
        <path d="M406.12 547.72L406.12 547.72" stroke="hsl(214.10000000000002, 81.7%, 65.8%)" stroke-width="1.5"></path>
        <path d="M406.12 547.72L408.93 352.03" stroke="hsl(214.10000000000002, 81.7%, 65.8%)" stroke-width="1.5"></path>
        <path d="M406.12 547.72L241.83 395.49" stroke="hsl(214.10000000000002, 81.7%, 65.8%)" stroke-width="1.5"></path>
        <path d="M406.12 547.72L560.89 368.66" stroke="hsl(214.10000000000002, 81.7%, 65.8%)" stroke-width="1.5"></path>
        <path d="M406.12 547.72L700.5 523.46" stroke="hsl(214.10000000000002, 81.7%, 65.8%)" stroke-width="1.5"></path>
        <path d="M560.89 368.66L560.89 368.66" stroke="hsl(214.10000000000002, 81.7%, 65.8%)" stroke-width="1.5"></path>
        <path d="M560.89 368.66L674.19 402.22" stroke="hsl(214.10000000000002, 81.7%, 65.8%)" stroke-width="1.5"></path>
        <path d="M560.89 368.66L700.5 523.46" stroke="hsl(214.10000000000002, 81.7%, 65.8%)" stroke-width="1.5"></path>
        <path d="M674.19 402.22L674.19 402.22" stroke="hsl(214.10000000000002, 81.7%, 65.8%)" stroke-width="1.5"></path>
        <path d="M674.19 402.22L700.5 523.46" stroke="hsl(214.10000000000002, 81.7%, 65.8%)" stroke-width="1.5"></path>
        <path d="M674.19 402.22L839.52 343.55" stroke="hsl(214.10000000000002, 81.7%, 65.8%)" stroke-width="1.5"></path>
        <path d="M674.19 402.22L510.25 501.58" stroke="hsl(214.10000000000002, 81.7%, 65.8%)" stroke-width="1.5"></path>
        <path d="M700.5 523.46L700.5 523.46" stroke="hsl(214.10000000000002, 81.7%, 65.8%)" stroke-width="1.5"></path>
        <path d="M700.5 523.46L510.25 501.58" stroke="hsl(214.10000000000002, 81.7%, 65.8%)" stroke-width="1.5"></path>
        <path d="M700.5 523.46L839.52 343.55" stroke="hsl(214.10000000000002, 81.7%, 65.8%)" stroke-width="1.5"></path>
        <path d="M700.5 523.46L965.23 489.97" stroke="hsl(214.10000000000002, 81.7%, 65.8%)" stroke-width="1.5"></path>
        <path d="M860.51 232.48L860.51 232.48" stroke="hsl(214.10000000000002, 81.7%, 65.8%)" stroke-width="1.5"></path>
        <path d="M860.51 232.48L952.51 199.42" stroke="hsl(214.10000000000002, 81.7%, 65.8%)" stroke-width="1.5"></path>
        <path d="M860.51 232.48L839.52 343.55" stroke="hsl(214.10000000000002, 81.7%, 65.8%)" stroke-width="1.5"></path>
        <path d="M860.51 232.48L955.06 341.33" stroke="hsl(214.10000000000002, 81.7%, 65.8%)" stroke-width="1.5"></path>
        <path d="M860.51 232.48L1005.22 104.61" stroke="hsl(214.10000000000002, 81.7%, 65.8%)" stroke-width="1.5"></path>
        <path d="M839.52 343.55L839.52 343.55" stroke="hsl(214.10000000000002, 81.7%, 65.8%)" stroke-width="1.5"></path>
        <path d="M839.52 343.55L952.51 199.42" stroke="hsl(214.10000000000002, 81.7%, 65.8%)" stroke-width="1.5"></path>
        <path d="M1005.22 104.61L1005.22 104.61" stroke="hsl(214.10000000000002, 81.7%, 65.8%)" stroke-width="1.5"></path>
        <path d="M1005.22 104.61L1098.55 109" stroke="hsl(214.10000000000002, 81.7%, 65.8%)" stroke-width="1.5"></path>
        <path d="M1005.22 104.61L952.51 199.42" stroke="hsl(214.10000000000002, 81.7%, 65.8%)" stroke-width="1.5"></path>
        <path d="M1005.22 104.61L1114.76 249.48" stroke="hsl(214.10000000000002, 81.7%, 65.8%)" stroke-width="1.5"></path>
        <path d="M1005.22 104.61L1134.59 -67.7" stroke="hsl(214.10000000000002, 81.7%, 65.8%)" stroke-width="1.5"></path>
        <path d="M1005.22 104.61L1245.41 78.39" stroke="hsl(214.10000000000002, 81.7%, 65.8%)" stroke-width="1.5"></path>
        <path d="M952.51 199.42L952.51 199.42" stroke="hsl(214.10000000000002, 81.7%, 65.8%)" stroke-width="1.5"></path>
        <path d="M952.51 199.42L1114.76 249.48" stroke="hsl(214.10000000000002, 81.7%, 65.8%)" stroke-width="1.5"></path>
        <path d="M952.51 199.42L1098.55 109" stroke="hsl(214.10000000000002, 81.7%, 65.8%)" stroke-width="1.5"></path>
        <path d="M965.23 489.97L965.23 489.97" stroke="hsl(214.10000000000002, 81.7%, 65.8%)" stroke-width="1.5"></path>
        <path d="M965.23 489.97L955.06 341.33" stroke="hsl(214.10000000000002, 81.7%, 65.8%)" stroke-width="1.5"></path>
        <path d="M965.23 489.97L1155.08 513.61" stroke="hsl(214.10000000000002, 81.7%, 65.8%)" stroke-width="1.5"></path>
        <path d="M965.23 489.97L839.52 343.55" stroke="hsl(214.10000000000002, 81.7%, 65.8%)" stroke-width="1.5"></path>
        <path d="M1134.59 -67.7L1134.59 -67.7" stroke="hsl(214.10000000000002, 81.7%, 65.8%)" stroke-width="1.5"></path>
        <path d="M1134.59 -67.7L1279.67 -110.55" stroke="hsl(214.10000000000002, 81.7%, 65.8%)" stroke-width="1.5"></path>
        <path d="M1134.59 -67.7L1098.55 109" stroke="hsl(214.10000000000002, 81.7%, 65.8%)" stroke-width="1.5"></path>
        <path d="M1134.59 -67.7L1245.41 78.39" stroke="hsl(214.10000000000002, 81.7%, 65.8%)" stroke-width="1.5"></path>
        <path d="M1098.55 109L1098.55 109" stroke="hsl(214.10000000000002, 81.7%, 65.8%)" stroke-width="1.5"></path>
        <path d="M1098.55 109L1114.76 249.48" stroke="hsl(214.10000000000002, 81.7%, 65.8%)" stroke-width="1.5"></path>
        <path d="M1098.55 109L1245.41 78.39" stroke="hsl(214.10000000000002, 81.7%, 65.8%)" stroke-width="1.5"></path>
        <path d="M1098.55 109L1282 190.84" stroke="hsl(214.10000000000002, 81.7%, 65.8%)" stroke-width="1.5"></path>
        <path d="M1114.76 249.48L1114.76 249.48" stroke="hsl(214.10000000000002, 81.7%, 65.8%)" stroke-width="1.5"></path>
        <path d="M1114.76 249.48L1282 190.84" stroke="hsl(214.10000000000002, 81.7%, 65.8%)" stroke-width="1.5"></path>
        <path d="M1155.08 513.61L1155.08 513.61" stroke="hsl(214.10000000000002, 81.7%, 65.8%)" stroke-width="1.5"></path>
        <path d="M1155.08 513.61L1246.23 510.06" stroke="hsl(214.10000000000002, 81.7%, 65.8%)" stroke-width="1.5"></path>
        <path d="M1155.08 513.61L1271.12 374.47" stroke="hsl(214.10000000000002, 81.7%, 65.8%)" stroke-width="1.5"></path>
        <path d="M1155.08 513.61L955.06 341.33" stroke="hsl(214.10000000000002, 81.7%, 65.8%)" stroke-width="1.5"></path>
        <path d="M1155.08 513.61L1114.76 249.48" stroke="hsl(214.10000000000002, 81.7%, 65.8%)" stroke-width="1.5"></path>
        <path d="M1279.67 -110.55L1279.67 -110.55" stroke="hsl(214.10000000000002, 81.7%, 65.8%)" stroke-width="1.5"></path>
        <path d="M1279.67 -110.55L1458.97 -86.84" stroke="hsl(214.10000000000002, 81.7%, 65.8%)" stroke-width="1.5"></path>
        <path d="M1279.67 -110.55L1245.41 78.39" stroke="hsl(214.10000000000002, 81.7%, 65.8%)" stroke-width="1.5"></path>
        <path d="M1245.41 78.39L1245.41 78.39" stroke="hsl(214.10000000000002, 81.7%, 65.8%)" stroke-width="1.5"></path>
        <path d="M1245.41 78.39L1282 190.84" stroke="hsl(214.10000000000002, 81.7%, 65.8%)" stroke-width="1.5"></path>
        <path d="M1282 190.84L1282 190.84" stroke="hsl(214.10000000000002, 81.7%, 65.8%)" stroke-width="1.5"></path>
        <path d="M1282 190.84L1397.73 253.33" stroke="hsl(214.10000000000002, 81.7%, 65.8%)" stroke-width="1.5"></path>
        <path d="M1271.12 374.47L1271.12 374.47" stroke="hsl(214.10000000000002, 81.7%, 65.8%)" stroke-width="1.5"></path>
        <path d="M1271.12 374.47L1246.23 510.06" stroke="hsl(214.10000000000002, 81.7%, 65.8%)" stroke-width="1.5"></path>
        <path d="M1271.12 374.47L1437.61 409.86" stroke="hsl(214.10000000000002, 81.7%, 65.8%)" stroke-width="1.5"></path>
        <path d="M1271.12 374.47L1397.73 253.33" stroke="hsl(214.10000000000002, 81.7%, 65.8%)" stroke-width="1.5"></path>
        <path d="M1246.23 510.06L1246.23 510.06" stroke="hsl(214.10000000000002, 81.7%, 65.8%)" stroke-width="1.5"></path>
        <path d="M1246.23 510.06L1439.94 516.08" stroke="hsl(214.10000000000002, 81.7%, 65.8%)" stroke-width="1.5"></path>
        <path d="M1246.23 510.06L1437.61 409.86" stroke="hsl(214.10000000000002, 81.7%, 65.8%)" stroke-width="1.5"></path>
        <path d="M1458.97 -86.84L1458.97 -86.84" stroke="hsl(214.10000000000002, 81.7%, 65.8%)" stroke-width="1.5"></path>
        <path d="M1458.97 -86.84L1442.99 101.52" stroke="hsl(214.10000000000002, 81.7%, 65.8%)" stroke-width="1.5"></path>
        <path d="M1458.97 -86.84L1245.41 78.39" stroke="hsl(214.10000000000002, 81.7%, 65.8%)" stroke-width="1.5"></path>
        <path d="M1458.97 -86.84L1134.59 -67.7" stroke="hsl(214.10000000000002, 81.7%, 65.8%)" stroke-width="1.5"></path>
        <path d="M1458.97 -86.84L1282 190.84" stroke="hsl(214.10000000000002, 81.7%, 65.8%)" stroke-width="1.5"></path>
        <path d="M1442.99 101.52L1442.99 101.52" stroke="hsl(214.10000000000002, 81.7%, 65.8%)" stroke-width="1.5"></path>
        <path d="M1442.99 101.52L1397.73 253.33" stroke="hsl(214.10000000000002, 81.7%, 65.8%)" stroke-width="1.5"></path>
        <path d="M1442.99 101.52L1282 190.84" stroke="hsl(214.10000000000002, 81.7%, 65.8%)" stroke-width="1.5"></path>
        <path d="M1442.99 101.52L1245.41 78.39" stroke="hsl(214.10000000000002, 81.7%, 65.8%)" stroke-width="1.5"></path>
        <path d="M1442.99 101.52L1279.67 -110.55" stroke="hsl(214.10000000000002, 81.7%, 65.8%)" stroke-width="1.5"></path>
        <path d="M1397.73 253.33L1397.73 253.33" stroke="hsl(214.10000000000002, 81.7%, 65.8%)" stroke-width="1.5"></path>
        <path d="M1397.73 253.33L1437.61 409.86" stroke="hsl(214.10000000000002, 81.7%, 65.8%)" stroke-width="1.5"></path>
        <path d="M1397.73 253.33L1245.41 78.39" stroke="hsl(214.10000000000002, 81.7%, 65.8%)" stroke-width="1.5"></path>
        <path d="M1437.61 409.86L1437.61 409.86" stroke="hsl(214.10000000000002, 81.7%, 65.8%)" stroke-width="1.5"></path>
        <path d="M1437.61 409.86L1439.94 516.08" stroke="hsl(214.10000000000002, 81.7%, 65.8%)" stroke-width="1.5"></path>
        <path d="M1439.94 516.08L1439.94 516.08" stroke="hsl(214.10000000000002, 81.7%, 65.8%)" stroke-width="1.5"></path>
        <path d="M1439.94 516.08L1271.12 374.47" stroke="hsl(214.10000000000002, 81.7%, 65.8%)" stroke-width="1.5"></path>
        <path d="M1439.94 516.08L1397.73 253.33" stroke="hsl(214.10000000000002, 81.7%, 65.8%)" stroke-width="1.5"></path>
        <path d="M1439.94 516.08L1155.08 513.61" stroke="hsl(214.10000000000002, 81.7%, 65.8%)" stroke-width="1.5"></path>
        <path d="M1439.94 516.08L1282 190.84" stroke="hsl(214.10000000000002, 81.7%, 65.8%)" stroke-width="1.5"></path>
        <circle r="25" cx="510.25" cy="501.58" fill="url(&quot;#SvgjsRadialGradient1019&quot;)"></circle>
        <circle r="25" cx="955.06" cy="341.33" fill="url(&quot;#SvgjsRadialGradient1019&quot;)"></circle>
        <circle r="5" cx="-51.51" cy="406.62" fill="#8db9f4"></circle>
        <circle r="5" cx="-80.99" cy="548.22" fill="#8db9f4"></circle>
        <circle r="5" cx="99.25" cy="368.86" fill="#8db9f4"></circle>
        <circle r="5" cx="105.53" cy="499.75" fill="#8db9f4"></circle>
        <circle r="5" cx="241.83" cy="395.49" fill="#8db9f4"></circle>
        <circle r="5" cx="248.11" cy="514.98" fill="#8db9f4"></circle>
        <circle r="5" cx="408.93" cy="352.03" fill="#8db9f4"></circle>
        <circle r="5" cx="406.12" cy="547.72" fill="#8db9f4"></circle>
        <circle r="5" cx="560.89" cy="368.66" fill="#8db9f4"></circle>
        <circle r="5" cx="674.19" cy="402.22" fill="#8db9f4"></circle>
        <circle r="5" cx="700.5" cy="523.46" fill="#8db9f4"></circle>
        <circle r="5" cx="860.51" cy="232.48" fill="#8db9f4"></circle>
        <circle r="5" cx="839.52" cy="343.55" fill="#8db9f4"></circle>
        <circle r="5" cx="1005.22" cy="104.61" fill="#8db9f4"></circle>
        <circle r="5" cx="952.51" cy="199.42" fill="#8db9f4"></circle>
        <circle r="5" cx="965.23" cy="489.97" fill="#8db9f4"></circle>
        <circle r="5" cx="1134.59" cy="-67.7" fill="#8db9f4"></circle>
        <circle r="5" cx="1098.55" cy="109" fill="#8db9f4"></circle>
        <circle r="5" cx="1114.76" cy="249.48" fill="#8db9f4"></circle>
        <circle r="5" cx="1155.08" cy="513.61" fill="#8db9f4"></circle>
        <circle r="5" cx="1279.67" cy="-110.55" fill="#8db9f4"></circle>
        <circle r="5" cx="1245.41" cy="78.39" fill="#8db9f4"></circle>
        <circle r="5" cx="1282" cy="190.84" fill="#8db9f4"></circle>
        <circle r="5" cx="1271.12" cy="374.47" fill="#8db9f4"></circle>
        <circle r="5" cx="1246.23" cy="510.06" fill="#8db9f4"></circle>
        <circle r="5" cx="1458.97" cy="-86.84" fill="#8db9f4"></circle>
        <circle r="5" cx="1442.99" cy="101.52" fill="#8db9f4"></circle>
        <circle r="5" cx="1397.73" cy="253.33" fill="#8db9f4"></circle>
        <circle r="5" cx="1437.61" cy="409.86" fill="#8db9f4"></circle>
        <circle r="5" cx="1439.94" cy="516.08" fill="#8db9f4"></circle>
    </g>
    <defs>
        <mask id="SvgjsMask1018">
            <rect width="1280" height="400" fill="#ffffff"></rect>
        </mask>
        <radialGradient id="SvgjsRadialGradient1019">
            <stop stop-color="#ffffff" offset="0.1"></stop>
            <stop stop-color="rgba(26, 115, 232, 1)" offset="0.2"></stop>
            <stop stop-color="rgba(26, 115, 232, 0)" offset="1"></stop>
        </radialGradient>
    </defs>
</svg>